# xmcd
#
# Track frame offsets:
#	150
#	14080
#	29174
#	44228
#	58678
#	71922
#	87666
#	104417
#	115311
#	131279
#	141092
#	155768
#	169104
#	183083
#
# Disc length: 2711 seconds
#
# Revision: 2
# Processed by: cddbd v1.5.2PL0 Copyright (c) Steve Scherf et al.
# Submitted via: EasyCDDAExtractor 16.0.8.2
#
DISCID=d70a950e
DTITLE=Συλλογικός δίσκος - Τραγούδια και σκοποί από τα Δωδεκάνησα
DYEAR=1998
DGENRE=Παραδοσιακή
TTITLE0=Καραμπεσίνη Άννα-Σαρρή Έφη - Τα Δωδεκάνησα
TTITLE1=Καβακοπούλου Ειρήνη - Ρόδος και Ροδονήσι
TTITLE2=Χατζηδάκη Αιμιλία - Θαλασσάκι
TTITLE3=Κλέπα Ευαγγελία - Εστόλισαν τον σπερβέρην
TTITLE4=Καραμπεσίνη Άννα-Σαρρή Έφη - Τη θάλασσα τη γαλανή
TTITLE5=Καραμπεσίνη Άννα - Μέρα μέρωσε
TTITLE6=Χατζηδάκη Αιμιλία - Πέρα στους πέρα κάμπους
TTITLE7=Άνευ ερμηνευτού - Σούστα Ρόδου [Τάσος Διακογιώργης]
TTITLE8=Χατζηδάκη Αιμιλία - Μπρατσέρα
TTITLE9=Καραμπεσίνη Άννα-Σαρρή Έφη - Ο μηχανικός
TTITLE10=Χατζηδάκη Αιμιλία - Μεσ' στου Αιγαίου τα νησιά
TTITLE11=Σαμίου Δόμνα - Τζιβαέρι
TTITLE12=Καβακοπούλου Ειρήνη - Δωδεκανησιακά δίστιχα
TTITLE13=Άνευ ερμηνευτού - Το πιπίνι-Μελαχροινό [Τάσος Διακογιώργης]
EXTD=
EXTT0=
EXTT1=
EXTT2=
EXTT3=
EXTT4=
EXTT5=
EXTT6=
EXTT7=
EXTT8=
EXTT9=
EXTT10=
EXTT11=
EXTT12=
EXTT13=
PLAYORDER=
